solid OpenSCAD_Model
  facet normal -1 0 0
    outer loop
      vertex 16.157 35.672 0
      vertex 16.157 39.672 6.89999
      vertex 16.157 39.672 0
    endloop
  endfacet
  facet normal -1 -0 0
    outer loop
      vertex 16.157 39.672 6.89999
      vertex 16.157 35.672 0
      vertex 16.157 35.672 6.89999
    endloop
  endfacet
  facet normal 1 -0 0
    outer loop
      vertex 18.557 35.672 4.1
      vertex 18.557 39.672 1.6
      vertex 18.557 39.672 4.1
    endloop
  endfacet
  facet normal 1 0 0
    outer loop
      vertex 18.557 39.672 1.6
      vertex 18.557 35.672 4.1
      vertex 18.557 35.672 1.6
    endloop
  endfacet
  facet normal 0 -1 0
    outer loop
      vertex 16.157 35.672 6.89999
      vertex 17.557 35.672 6
      vertex 17.557 35.672 6.89999
    endloop
  endfacet
  facet normal 0 -1 0
    outer loop
      vertex 16.157 35.672 6.89999
      vertex 17.557 35.672 4.1
      vertex 17.557 35.672 6
    endloop
  endfacet
  facet normal 0 -1 0
    outer loop
      vertex 17.557 35.672 4.1
      vertex 17.907 35.672 1.6
      vertex 18.557 35.672 4.1
    endloop
  endfacet
  facet normal 0 -1 0
    outer loop
      vertex 16.157 35.672 0
      vertex 17.557 35.672 4.1
      vertex 16.157 35.672 6.89999
    endloop
  endfacet
  facet normal 0 -1 -0
    outer loop
      vertex 17.557 35.672 4.1
      vertex 16.157 35.672 0
      vertex 17.907 35.672 1.6
    endloop
  endfacet
  facet normal 0 -1 -0
    outer loop
      vertex 17.907 35.672 1.6
      vertex 16.157 35.672 0
      vertex 17.907 35.672 0
    endloop
  endfacet
  facet normal 0 -1 0
    outer loop
      vertex 17.557 35.672 6.89999
      vertex 17.557 35.672 6
      vertex 18.457 35.672 6
    endloop
  endfacet
  facet normal 0 -1 -0
    outer loop
      vertex 18.557 35.672 4.1
      vertex 17.907 35.672 1.6
      vertex 18.557 35.672 1.6
    endloop
  endfacet
  facet normal 0 0 -1
    outer loop
      vertex 16.157 35.672 0
      vertex 17.907 39.672 0
      vertex 17.907 35.672 0
    endloop
  endfacet
  facet normal -0 0 -1
    outer loop
      vertex 17.907 39.672 0
      vertex 16.157 35.672 0
      vertex 16.157 39.672 0
    endloop
  endfacet
  facet normal 0 0 -1
    outer loop
      vertex 16.157 17.672 0
      vertex 17.907 21.672 0
      vertex 17.907 17.672 0
    endloop
  endfacet
  facet normal -0 0 -1
    outer loop
      vertex 17.907 21.672 0
      vertex 16.157 17.672 0
      vertex 16.157 21.672 0
    endloop
  endfacet
  facet normal 0 0 -1
    outer loop
      vertex 47.371 21.672 0
      vertex 30.639 42.672 0
      vertex 34.639 42.672 0
    endloop
  endfacet
  facet normal 0 0 -1
    outer loop
      vertex 0 2.92969e-06 0
      vertex 17.907 10.541 0
      vertex 30.639 2.92969e-06 0
    endloop
  endfacet
  facet normal -0 0 -1
    outer loop
      vertex 17.907 10.541 0
      vertex 0 2.92969e-06 0
      vertex 0 10.541 0
    endloop
  endfacet
  facet normal 0 0 -1
    outer loop
      vertex 30.639 2.92969e-06 0
      vertex 34.639 2.92969e-06 0
      vertex 34.639 -1.75 0
    endloop
  endfacet
  facet normal 0 0 -1
    outer loop
      vertex 17.907 17.672 0
      vertex 30.639 2.92969e-06 0
      vertex 17.907 10.541 0
    endloop
  endfacet
  facet normal 0 0 -1
    outer loop
      vertex 30.639 2.92969e-06 0
      vertex 34.639 -1.75 0
      vertex 30.639 -1.75 0
    endloop
  endfacet
  facet normal 0 0 -1
    outer loop
      vertex 47.371 17.672 0
      vertex 17.907 17.672 0
      vertex 47.371 21.672 0
    endloop
  endfacet
  facet normal 0 0 -1
    outer loop
      vertex 34.639 42.672 0
      vertex 30.639 42.672 0
      vertex 34.639 44.422 0
    endloop
  endfacet
  facet normal -0 0 -1
    outer loop
      vertex 34.639 44.422 0
      vertex 30.639 42.672 0
      vertex 30.639 44.422 0
    endloop
  endfacet
  facet normal 0 0 -1
    outer loop
      vertex 34.639 2.92969e-06 0
      vertex 47.371 17.672 0
      vertex 47.371 2.92969e-06 0
    endloop
  endfacet
  facet normal 0 0 -1
    outer loop
      vertex 30.639 2.92969e-06 0
      vertex 17.907 17.672 0
      vertex 34.639 2.92969e-06 0
    endloop
  endfacet
  facet normal 0 0 -1
    outer loop
      vertex 34.639 2.92969e-06 0
      vertex 17.907 17.672 0
      vertex 47.371 17.672 0
    endloop
  endfacet
  facet normal 0 0 -1
    outer loop
      vertex 47.371 21.672 0
      vertex 34.639 42.672 0
      vertex 47.371 35.672 0
    endloop
  endfacet
  facet normal 0 0 -1
    outer loop
      vertex 47.371 35.672 0
      vertex 34.639 42.672 0
      vertex 47.371 39.672 0
    endloop
  endfacet
  facet normal 0 0 -1
    outer loop
      vertex 47.371 39.672 0
      vertex 34.639 42.672 0
      vertex 47.371 42.672 0
    endloop
  endfacet
  facet normal 0 0 -1
    outer loop
      vertex 47.371 17.672 0
      vertex 49.121 21.672 0
      vertex 49.121 17.672 0
    endloop
  endfacet
  facet normal -0 0 -1
    outer loop
      vertex 49.121 21.672 0
      vertex 47.371 17.672 0
      vertex 47.371 21.672 0
    endloop
  endfacet
  facet normal 0 0 -1
    outer loop
      vertex 47.371 35.672 0
      vertex 49.121 39.672 0
      vertex 49.121 35.672 0
    endloop
  endfacet
  facet normal -0 0 -1
    outer loop
      vertex 49.121 39.672 0
      vertex 47.371 35.672 0
      vertex 47.371 39.672 0
    endloop
  endfacet
  facet normal 0 0 -1
    outer loop
      vertex 17.907 21.672 0
      vertex 47.371 21.672 0
      vertex 17.907 17.672 0
    endloop
  endfacet
  facet normal 0 0 -1
    outer loop
      vertex 47.371 21.672 0
      vertex 17.907 21.672 0
      vertex 30.639 42.672 0
    endloop
  endfacet
  facet normal 0 0 -1
    outer loop
      vertex 17.907 35.672 0
      vertex 30.639 42.672 0
      vertex 17.907 21.672 0
    endloop
  endfacet
  facet normal 0 0 -1
    outer loop
      vertex 17.907 39.672 0
      vertex 30.639 42.672 0
      vertex 17.907 35.672 0
    endloop
  endfacet
  facet normal -0 0 -1
    outer loop
      vertex 30.639 42.672 0
      vertex 17.907 39.672 0
      vertex 17.907 42.672 0
    endloop
  endfacet
  facet normal 0 1 0
    outer loop
      vertex 17.907 39.672 1.6
      vertex 18.557 39.672 4.1
      vertex 18.557 39.672 1.6
    endloop
  endfacet
  facet normal 0 1 0
    outer loop
      vertex 17.557 39.672 6
      vertex 17.557 39.672 6.89999
      vertex 18.457 39.672 6
    endloop
  endfacet
  facet normal 0 1 0
    outer loop
      vertex 17.557 39.672 6.89999
      vertex 17.557 39.672 6
      vertex 16.157 39.672 6.89999
    endloop
  endfacet
  facet normal 0 1 -0
    outer loop
      vertex 17.557 39.672 4.1
      vertex 16.157 39.672 6.89999
      vertex 17.557 39.672 6
    endloop
  endfacet
  facet normal 0 1 0
    outer loop
      vertex 18.557 39.672 4.1
      vertex 17.907 39.672 1.6
      vertex 17.557 39.672 4.1
    endloop
  endfacet
  facet normal 0 1 0
    outer loop
      vertex 16.157 39.672 0
      vertex 17.557 39.672 4.1
      vertex 17.907 39.672 1.6
    endloop
  endfacet
  facet normal 0 1 0
    outer loop
      vertex 16.157 39.672 0
      vertex 17.907 39.672 1.6
      vertex 17.907 39.672 0
    endloop
  endfacet
  facet normal 0 1 0
    outer loop
      vertex 17.557 39.672 4.1
      vertex 16.157 39.672 0
      vertex 16.157 39.672 6.89999
    endloop
  endfacet
  facet normal 1 -0 0
    outer loop
      vertex 17.557 35.672 6
      vertex 17.557 39.672 4.1
      vertex 17.557 39.672 6
    endloop
  endfacet
  facet normal 1 0 0
    outer loop
      vertex 17.557 39.672 4.1
      vertex 17.557 35.672 6
      vertex 17.557 35.672 4.1
    endloop
  endfacet
  facet normal -0 0 1
    outer loop
      vertex 17.557 39.672 4.1
      vertex 18.557 35.672 4.1
      vertex 18.557 39.672 4.1
    endloop
  endfacet
  facet normal 0 0 1
    outer loop
      vertex 18.557 35.672 4.1
      vertex 17.557 39.672 4.1
      vertex 17.557 35.672 4.1
    endloop
  endfacet
  facet normal 0.707103 -0 0.707111
    outer loop
      vertex 17.557 35.672 6.89999
      vertex 18.457 39.672 6
      vertex 17.557 39.672 6.89999
    endloop
  endfacet
  facet normal 0.707103 0 0.707111
    outer loop
      vertex 18.457 39.672 6
      vertex 17.557 35.672 6.89999
      vertex 18.457 35.672 6
    endloop
  endfacet
  facet normal 0 0 -1
    outer loop
      vertex 17.557 35.672 6
      vertex 18.457 39.672 6
      vertex 18.457 35.672 6
    endloop
  endfacet
  facet normal -0 0 -1
    outer loop
      vertex 18.457 39.672 6
      vertex 17.557 35.672 6
      vertex 17.557 39.672 6
    endloop
  endfacet
  facet normal -0 0 1
    outer loop
      vertex 16.157 39.672 6.89999
      vertex 17.557 35.672 6.89999
      vertex 17.557 39.672 6.89999
    endloop
  endfacet
  facet normal 0 0 1
    outer loop
      vertex 17.557 35.672 6.89999
      vertex 16.157 39.672 6.89999
      vertex 16.157 35.672 6.89999
    endloop
  endfacet
  facet normal 1 -0 0
    outer loop
      vertex 49.121 35.672 6.89999
      vertex 49.121 39.672 0
      vertex 49.121 39.672 6.89999
    endloop
  endfacet
  facet normal 1 0 0
    outer loop
      vertex 49.121 39.672 0
      vertex 49.121 35.672 6.89999
      vertex 49.121 35.672 0
    endloop
  endfacet
  facet normal -1 0 0
    outer loop
      vertex 46.721 35.672 1.6
      vertex 46.721 39.672 4.1
      vertex 46.721 39.672 1.6
    endloop
  endfacet
  facet normal -1 -0 0
    outer loop
      vertex 46.721 39.672 4.1
      vertex 46.721 35.672 1.6
      vertex 46.721 35.672 4.1
    endloop
  endfacet
  facet normal 0 1 0
    outer loop
      vertex 49.121 39.672 6.89999
      vertex 47.721 39.672 6
      vertex 47.721 39.672 6.89999
    endloop
  endfacet
  facet normal 0 1 0
    outer loop
      vertex 49.121 39.672 6.89999
      vertex 47.721 39.672 4.1
      vertex 47.721 39.672 6
    endloop
  endfacet
  facet normal 0 1 0
    outer loop
      vertex 47.721 39.672 4.1
      vertex 47.371 39.672 1.6
      vertex 46.721 39.672 4.1
    endloop
  endfacet
  facet normal 0 1 -0
    outer loop
      vertex 49.121 39.672 0
      vertex 47.721 39.672 4.1
      vertex 49.121 39.672 6.89999
    endloop
  endfacet
  facet normal 0 1 0
    outer loop
      vertex 47.721 39.672 4.1
      vertex 49.121 39.672 0
      vertex 47.371 39.672 1.6
    endloop
  endfacet
  facet normal 0 1 0
    outer loop
      vertex 47.371 39.672 1.6
      vertex 49.121 39.672 0
      vertex 47.371 39.672 0
    endloop
  endfacet
  facet normal 0 1 0
    outer loop
      vertex 47.721 39.672 6.89999
      vertex 47.721 39.672 6
      vertex 46.821 39.672 6
    endloop
  endfacet
  facet normal 0 1 0
    outer loop
      vertex 46.721 39.672 4.1
      vertex 47.371 39.672 1.6
      vertex 46.721 39.672 1.6
    endloop
  endfacet
  facet normal 0 -1 0
    outer loop
      vertex 47.371 35.672 1.6
      vertex 46.721 35.672 4.1
      vertex 46.721 35.672 1.6
    endloop
  endfacet
  facet normal 0 -1 0
    outer loop
      vertex 47.721 35.672 6
      vertex 47.721 35.672 6.89999
      vertex 46.821 35.672 6
    endloop
  endfacet
  facet normal 0 -1 0
    outer loop
      vertex 47.721 35.672 6.89999
      vertex 47.721 35.672 6
      vertex 49.121 35.672 6.89999
    endloop
  endfacet
  facet normal 0 -1 0
    outer loop
      vertex 47.721 35.672 4.1
      vertex 49.121 35.672 6.89999
      vertex 47.721 35.672 6
    endloop
  endfacet
  facet normal 0 -1 0
    outer loop
      vertex 46.721 35.672 4.1
      vertex 47.371 35.672 1.6
      vertex 47.721 35.672 4.1
    endloop
  endfacet
  facet normal 0 -1 0
    outer loop
      vertex 49.121 35.672 0
      vertex 47.721 35.672 4.1
      vertex 47.371 35.672 1.6
    endloop
  endfacet
  facet normal 0 -1 0
    outer loop
      vertex 49.121 35.672 0
      vertex 47.371 35.672 1.6
      vertex 47.371 35.672 0
    endloop
  endfacet
  facet normal 0 -1 0
    outer loop
      vertex 47.721 35.672 4.1
      vertex 49.121 35.672 0
      vertex 49.121 35.672 6.89999
    endloop
  endfacet
  facet normal -1 0 0
    outer loop
      vertex 47.721 35.672 4.1
      vertex 47.721 39.672 6
      vertex 47.721 39.672 4.1
    endloop
  endfacet
  facet normal -1 -0 0
    outer loop
      vertex 47.721 39.672 6
      vertex 47.721 35.672 4.1
      vertex 47.721 35.672 6
    endloop
  endfacet
  facet normal -0 0 1
    outer loop
      vertex 46.721 39.672 4.1
      vertex 47.721 35.672 4.1
      vertex 47.721 39.672 4.1
    endloop
  endfacet
  facet normal 0 0 1
    outer loop
      vertex 47.721 35.672 4.1
      vertex 46.721 39.672 4.1
      vertex 46.721 35.672 4.1
    endloop
  endfacet
  facet normal -0.707103 0 0.707111
    outer loop
      vertex 46.821 35.672 6
      vertex 47.721 39.672 6.89999
      vertex 46.821 39.672 6
    endloop
  endfacet
  facet normal -0.707103 0 0.707111
    outer loop
      vertex 47.721 39.672 6.89999
      vertex 46.821 35.672 6
      vertex 47.721 35.672 6.89999
    endloop
  endfacet
  facet normal 0 0 -1
    outer loop
      vertex 46.821 35.672 6
      vertex 47.721 39.672 6
      vertex 47.721 35.672 6
    endloop
  endfacet
  facet normal -0 0 -1
    outer loop
      vertex 47.721 39.672 6
      vertex 46.821 35.672 6
      vertex 46.821 39.672 6
    endloop
  endfacet
  facet normal -0 0 1
    outer loop
      vertex 47.721 39.672 6.89999
      vertex 49.121 35.672 6.89999
      vertex 49.121 39.672 6.89999
    endloop
  endfacet
  facet normal 0 0 1
    outer loop
      vertex 49.121 35.672 6.89999
      vertex 47.721 39.672 6.89999
      vertex 47.721 35.672 6.89999
    endloop
  endfacet
  facet normal -1 0 0
    outer loop
      vertex 16.157 17.672 0
      vertex 16.157 21.672 6.89999
      vertex 16.157 21.672 0
    endloop
  endfacet
  facet normal -1 -0 0
    outer loop
      vertex 16.157 21.672 6.89999
      vertex 16.157 17.672 0
      vertex 16.157 17.672 6.89999
    endloop
  endfacet
  facet normal 1 -0 0
    outer loop
      vertex 18.557 17.672 4.1
      vertex 18.557 21.672 1.6
      vertex 18.557 21.672 4.1
    endloop
  endfacet
  facet normal 1 0 0
    outer loop
      vertex 18.557 21.672 1.6
      vertex 18.557 17.672 4.1
      vertex 18.557 17.672 1.6
    endloop
  endfacet
  facet normal 0 -1 0
    outer loop
      vertex 16.157 17.672 6.89999
      vertex 17.557 17.672 6
      vertex 17.557 17.672 6.89999
    endloop
  endfacet
  facet normal 0 -1 0
    outer loop
      vertex 16.157 17.672 6.89999
      vertex 17.557 17.672 4.1
      vertex 17.557 17.672 6
    endloop
  endfacet
  facet normal 0 -1 0
    outer loop
      vertex 17.557 17.672 4.1
      vertex 17.907 17.672 1.6
      vertex 18.557 17.672 4.1
    endloop
  endfacet
  facet normal 0 -1 0
    outer loop
      vertex 16.157 17.672 0
      vertex 17.557 17.672 4.1
      vertex 16.157 17.672 6.89999
    endloop
  endfacet
  facet normal 0 -1 -0
    outer loop
      vertex 17.557 17.672 4.1
      vertex 16.157 17.672 0
      vertex 17.907 17.672 1.6
    endloop
  endfacet
  facet normal 0 -1 -0
    outer loop
      vertex 17.907 17.672 1.6
      vertex 16.157 17.672 0
      vertex 17.907 17.672 0
    endloop
  endfacet
  facet normal 0 -1 0
    outer loop
      vertex 17.557 17.672 6.89999
      vertex 17.557 17.672 6
      vertex 18.457 17.672 6
    endloop
  endfacet
  facet normal 0 -1 -0
    outer loop
      vertex 18.557 17.672 4.1
      vertex 17.907 17.672 1.6
      vertex 18.557 17.672 1.6
    endloop
  endfacet
  facet normal 0 1 0
    outer loop
      vertex 17.907 21.672 1.6
      vertex 18.557 21.672 4.1
      vertex 18.557 21.672 1.6
    endloop
  endfacet
  facet normal 0 1 0
    outer loop
      vertex 17.557 21.672 6
      vertex 17.557 21.672 6.89999
      vertex 18.457 21.672 6
    endloop
  endfacet
  facet normal 0 1 0
    outer loop
      vertex 17.557 21.672 6.89999
      vertex 17.557 21.672 6
      vertex 16.157 21.672 6.89999
    endloop
  endfacet
  facet normal 0 1 -0
    outer loop
      vertex 17.557 21.672 4.1
      vertex 16.157 21.672 6.89999
      vertex 17.557 21.672 6
    endloop
  endfacet
  facet normal 0 1 0
    outer loop
      vertex 18.557 21.672 4.1
      vertex 17.907 21.672 1.6
      vertex 17.557 21.672 4.1
    endloop
  endfacet
  facet normal 0 1 0
    outer loop
      vertex 16.157 21.672 0
      vertex 17.557 21.672 4.1
      vertex 17.907 21.672 1.6
    endloop
  endfacet
  facet normal 0 1 0
    outer loop
      vertex 16.157 21.672 0
      vertex 17.907 21.672 1.6
      vertex 17.907 21.672 0
    endloop
  endfacet
  facet normal 0 1 0
    outer loop
      vertex 17.557 21.672 4.1
      vertex 16.157 21.672 0
      vertex 16.157 21.672 6.89999
    endloop
  endfacet
  facet normal 1 -0 0
    outer loop
      vertex 17.557 17.672 6
      vertex 17.557 21.672 4.1
      vertex 17.557 21.672 6
    endloop
  endfacet
  facet normal 1 0 0
    outer loop
      vertex 17.557 21.672 4.1
      vertex 17.557 17.672 6
      vertex 17.557 17.672 4.1
    endloop
  endfacet
  facet normal -0 0 1
    outer loop
      vertex 17.557 21.672 4.1
      vertex 18.557 17.672 4.1
      vertex 18.557 21.672 4.1
    endloop
  endfacet
  facet normal 0 0 1
    outer loop
      vertex 18.557 17.672 4.1
      vertex 17.557 21.672 4.1
      vertex 17.557 17.672 4.1
    endloop
  endfacet
  facet normal 0.707103 -0 0.707111
    outer loop
      vertex 17.557 17.672 6.89999
      vertex 18.457 21.672 6
      vertex 17.557 21.672 6.89999
    endloop
  endfacet
  facet normal 0.707103 0 0.707111
    outer loop
      vertex 18.457 21.672 6
      vertex 17.557 17.672 6.89999
      vertex 18.457 17.672 6
    endloop
  endfacet
  facet normal 0 0 -1
    outer loop
      vertex 17.557 17.672 6
      vertex 18.457 21.672 6
      vertex 18.457 17.672 6
    endloop
  endfacet
  facet normal -0 0 -1
    outer loop
      vertex 18.457 21.672 6
      vertex 17.557 17.672 6
      vertex 17.557 21.672 6
    endloop
  endfacet
  facet normal -0 0 1
    outer loop
      vertex 16.157 21.672 6.89999
      vertex 17.557 17.672 6.89999
      vertex 17.557 21.672 6.89999
    endloop
  endfacet
  facet normal 0 0 1
    outer loop
      vertex 17.557 17.672 6.89999
      vertex 16.157 21.672 6.89999
      vertex 16.157 17.672 6.89999
    endloop
  endfacet
  facet normal 1 -0 0
    outer loop
      vertex 49.121 17.672 6.89999
      vertex 49.121 21.672 0
      vertex 49.121 21.672 6.89999
    endloop
  endfacet
  facet normal 1 0 0
    outer loop
      vertex 49.121 21.672 0
      vertex 49.121 17.672 6.89999
      vertex 49.121 17.672 0
    endloop
  endfacet
  facet normal -1 0 0
    outer loop
      vertex 46.721 17.672 1.6
      vertex 46.721 21.672 4.1
      vertex 46.721 21.672 1.6
    endloop
  endfacet
  facet normal -1 -0 0
    outer loop
      vertex 46.721 21.672 4.1
      vertex 46.721 17.672 1.6
      vertex 46.721 17.672 4.1
    endloop
  endfacet
  facet normal 0 1 0
    outer loop
      vertex 49.121 21.672 6.89999
      vertex 47.721 21.672 6
      vertex 47.721 21.672 6.89999
    endloop
  endfacet
  facet normal 0 1 0
    outer loop
      vertex 49.121 21.672 6.89999
      vertex 47.721 21.672 4.1
      vertex 47.721 21.672 6
    endloop
  endfacet
  facet normal 0 1 0
    outer loop
      vertex 47.721 21.672 4.1
      vertex 47.371 21.672 1.6
      vertex 46.721 21.672 4.1
    endloop
  endfacet
  facet normal 0 1 -0
    outer loop
      vertex 49.121 21.672 0
      vertex 47.721 21.672 4.1
      vertex 49.121 21.672 6.89999
    endloop
  endfacet
  facet normal 0 1 0
    outer loop
      vertex 47.721 21.672 4.1
      vertex 49.121 21.672 0
      vertex 47.371 21.672 1.6
    endloop
  endfacet
  facet normal 0 1 0
    outer loop
      vertex 47.371 21.672 1.6
      vertex 49.121 21.672 0
      vertex 47.371 21.672 0
    endloop
  endfacet
  facet normal 0 1 0
    outer loop
      vertex 47.721 21.672 6.89999
      vertex 47.721 21.672 6
      vertex 46.821 21.672 6
    endloop
  endfacet
  facet normal 0 1 0
    outer loop
      vertex 46.721 21.672 4.1
      vertex 47.371 21.672 1.6
      vertex 46.721 21.672 1.6
    endloop
  endfacet
  facet normal 0 -1 0
    outer loop
      vertex 47.371 17.672 1.6
      vertex 46.721 17.672 4.1
      vertex 46.721 17.672 1.6
    endloop
  endfacet
  facet normal 0 -1 0
    outer loop
      vertex 47.721 17.672 6
      vertex 47.721 17.672 6.89999
      vertex 46.821 17.672 6
    endloop
  endfacet
  facet normal 0 -1 0
    outer loop
      vertex 47.721 17.672 6.89999
      vertex 47.721 17.672 6
      vertex 49.121 17.672 6.89999
    endloop
  endfacet
  facet normal 0 -1 0
    outer loop
      vertex 47.721 17.672 4.1
      vertex 49.121 17.672 6.89999
      vertex 47.721 17.672 6
    endloop
  endfacet
  facet normal 0 -1 0
    outer loop
      vertex 46.721 17.672 4.1
      vertex 47.371 17.672 1.6
      vertex 47.721 17.672 4.1
    endloop
  endfacet
  facet normal 0 -1 0
    outer loop
      vertex 49.121 17.672 0
      vertex 47.721 17.672 4.1
      vertex 47.371 17.672 1.6
    endloop
  endfacet
  facet normal 0 -1 0
    outer loop
      vertex 49.121 17.672 0
      vertex 47.371 17.672 1.6
      vertex 47.371 17.672 0
    endloop
  endfacet
  facet normal 0 -1 0
    outer loop
      vertex 47.721 17.672 4.1
      vertex 49.121 17.672 0
      vertex 49.121 17.672 6.89999
    endloop
  endfacet
  facet normal -1 0 0
    outer loop
      vertex 47.721 17.672 4.1
      vertex 47.721 21.672 6
      vertex 47.721 21.672 4.1
    endloop
  endfacet
  facet normal -1 -0 0
    outer loop
      vertex 47.721 21.672 6
      vertex 47.721 17.672 4.1
      vertex 47.721 17.672 6
    endloop
  endfacet
  facet normal -0 0 1
    outer loop
      vertex 46.721 21.672 4.1
      vertex 47.721 17.672 4.1
      vertex 47.721 21.672 4.1
    endloop
  endfacet
  facet normal 0 0 1
    outer loop
      vertex 47.721 17.672 4.1
      vertex 46.721 21.672 4.1
      vertex 46.721 17.672 4.1
    endloop
  endfacet
  facet normal -0.707103 0 0.707111
    outer loop
      vertex 46.821 17.672 6
      vertex 47.721 21.672 6.89999
      vertex 46.821 21.672 6
    endloop
  endfacet
  facet normal -0.707103 0 0.707111
    outer loop
      vertex 47.721 21.672 6.89999
      vertex 46.821 17.672 6
      vertex 47.721 17.672 6.89999
    endloop
  endfacet
  facet normal 0 0 -1
    outer loop
      vertex 46.821 17.672 6
      vertex 47.721 21.672 6
      vertex 47.721 17.672 6
    endloop
  endfacet
  facet normal -0 0 -1
    outer loop
      vertex 47.721 21.672 6
      vertex 46.821 17.672 6
      vertex 46.821 21.672 6
    endloop
  endfacet
  facet normal -0 0 1
    outer loop
      vertex 47.721 21.672 6.89999
      vertex 49.121 17.672 6.89999
      vertex 49.121 21.672 6.89999
    endloop
  endfacet
  facet normal 0 0 1
    outer loop
      vertex 49.121 17.672 6.89999
      vertex 47.721 21.672 6.89999
      vertex 47.721 17.672 6.89999
    endloop
  endfacet
  facet normal 0 1 -0
    outer loop
      vertex 34.639 44.422 0
      vertex 30.639 44.422 5.13
      vertex 34.639 44.422 5.13
    endloop
  endfacet
  facet normal 0 1 0
    outer loop
      vertex 30.639 44.422 5.13
      vertex 34.639 44.422 0
      vertex 30.639 44.422 0
    endloop
  endfacet
  facet normal 0 0 1
    outer loop
      vertex 47.371 42.672 1.6
      vertex 46.721 39.672 1.6
      vertex 47.371 39.672 1.6
    endloop
  endfacet
  facet normal 0 0 1
    outer loop
      vertex 34.639 42.672 1.6
      vertex 46.721 35.672 1.6
      vertex 46.721 39.672 1.6
    endloop
  endfacet
  facet normal 0 0 1
    outer loop
      vertex 46.721 35.672 1.6
      vertex 34.639 42.672 1.6
      vertex 46.721 21.672 1.6
    endloop
  endfacet
  facet normal 0 0 1
    outer loop
      vertex 18.557 21.672 1.6
      vertex 46.721 21.672 1.6
      vertex 34.639 42.672 1.6
    endloop
  endfacet
  facet normal -0 0 1
    outer loop
      vertex 34.639 42.672 1.6
      vertex 46.721 39.672 1.6
      vertex 47.371 42.672 1.6
    endloop
  endfacet
  facet normal -0 0 1
    outer loop
      vertex 46.721 35.672 1.6
      vertex 47.371 21.672 1.6
      vertex 47.371 35.672 1.6
    endloop
  endfacet
  facet normal 0 0 1
    outer loop
      vertex 47.371 21.672 1.6
      vertex 46.721 35.672 1.6
      vertex 46.721 21.672 1.6
    endloop
  endfacet
  facet normal -0 0 1
    outer loop
      vertex 46.721 17.672 1.6
      vertex 47.371 2.92969e-06 1.6
      vertex 47.371 17.672 1.6
    endloop
  endfacet
  facet normal 0 0 1
    outer loop
      vertex 18.557 21.672 1.6
      vertex 34.639 42.672 1.6
      vertex 30.639 42.672 1.6
    endloop
  endfacet
  facet normal 0 0 1
    outer loop
      vertex 46.721 17.672 1.6
      vertex 34.639 2.92969e-06 1.6
      vertex 47.371 2.92969e-06 1.6
    endloop
  endfacet
  facet normal -0 0 1
    outer loop
      vertex 17.907 35.672 1.6
      vertex 18.557 21.672 1.6
      vertex 18.557 35.672 1.6
    endloop
  endfacet
  facet normal 0 0 1
    outer loop
      vertex 18.557 21.672 1.6
      vertex 17.907 35.672 1.6
      vertex 17.907 21.672 1.6
    endloop
  endfacet
  facet normal 0 0 1
    outer loop
      vertex 18.557 35.672 1.6
      vertex 30.639 42.672 1.6
      vertex 18.557 39.672 1.6
    endloop
  endfacet
  facet normal -0 0 1
    outer loop
      vertex 17.907 42.672 1.6
      vertex 18.557 39.672 1.6
      vertex 30.639 42.672 1.6
    endloop
  endfacet
  facet normal 0 0 1
    outer loop
      vertex 18.557 39.672 1.6
      vertex 17.907 42.672 1.6
      vertex 17.907 39.672 1.6
    endloop
  endfacet
  facet normal 0 0 1
    outer loop
      vertex 30.639 42.672 1.6
      vertex 34.639 42.672 1.6
      vertex 34.639 43.022 1.6
    endloop
  endfacet
  facet normal 0 0 1
    outer loop
      vertex 46.721 21.672 1.6
      vertex 18.557 21.672 1.6
      vertex 46.721 17.672 1.6
    endloop
  endfacet
  facet normal 0 0 1
    outer loop
      vertex 30.639 42.672 1.6
      vertex 34.639 43.022 1.6
      vertex 30.639 43.022 1.6
    endloop
  endfacet
  facet normal 0 0 1
    outer loop
      vertex 46.721 17.672 1.6
      vertex 30.639 2.92969e-06 1.6
      vertex 34.639 2.92969e-06 1.6
    endloop
  endfacet
  facet normal 0 0 1
    outer loop
      vertex 34.639 2.92969e-06 1.6
      vertex 30.639 2.92969e-06 1.6
      vertex 34.639 -0.349999 1.6
    endloop
  endfacet
  facet normal 0 0 1
    outer loop
      vertex 34.639 -0.349999 1.6
      vertex 30.639 2.92969e-06 1.6
      vertex 30.639 -0.349999 1.6
    endloop
  endfacet
  facet normal 0 0 1
    outer loop
      vertex 18.557 21.672 1.6
      vertex 30.639 42.672 1.6
      vertex 18.557 35.672 1.6
    endloop
  endfacet
  facet normal 0 0 1
    outer loop
      vertex 18.557 17.672 1.6
      vertex 46.721 17.672 1.6
      vertex 18.557 21.672 1.6
    endloop
  endfacet
  facet normal 0 0 1
    outer loop
      vertex 46.721 17.672 1.6
      vertex 18.557 17.672 1.6
      vertex 30.639 2.92969e-06 1.6
    endloop
  endfacet
  facet normal 0 0 1
    outer loop
      vertex 17.907 10.541 1.6
      vertex 18.557 17.672 1.6
      vertex 17.907 17.672 1.6
    endloop
  endfacet
  facet normal 0 0 1
    outer loop
      vertex 18.557 17.672 1.6
      vertex 17.907 10.541 1.6
      vertex 30.639 2.92969e-06 1.6
    endloop
  endfacet
  facet normal 0 0 1
    outer loop
      vertex 0 2.92969e-06 1.6
      vertex 17.907 10.541 1.6
      vertex 0 10.541 1.6
    endloop
  endfacet
  facet normal 0 0 1
    outer loop
      vertex 17.907 10.541 1.6
      vertex 0 2.92969e-06 1.6
      vertex 30.639 2.92969e-06 1.6
    endloop
  endfacet
  facet normal 1 0 0
    outer loop
      vertex 34.639 43.022 1.6
      vertex 34.639 44.422 5.13
      vertex 34.639 43.022 5.13
    endloop
  endfacet
  facet normal 1 0 0
    outer loop
      vertex 34.639 44.422 5.13
      vertex 34.639 43.022 1.6
      vertex 34.639 44.422 0
    endloop
  endfacet
  facet normal 1 0 0
    outer loop
      vertex 34.639 42.672 0
      vertex 34.639 43.022 1.6
      vertex 34.639 42.672 1.6
    endloop
  endfacet
  facet normal 1 0 0
    outer loop
      vertex 34.639 43.022 1.6
      vertex 34.639 42.672 0
      vertex 34.639 44.422 0
    endloop
  endfacet
  facet normal -1 0 0
    outer loop
      vertex 30.639 44.422 0
      vertex 30.639 43.022 1.6
      vertex 30.639 44.422 5.13
    endloop
  endfacet
  facet normal -1 0 0
    outer loop
      vertex 30.639 42.672 0
      vertex 30.639 43.022 1.6
      vertex 30.639 44.422 0
    endloop
  endfacet
  facet normal -1 -0 0
    outer loop
      vertex 30.639 43.022 1.6
      vertex 30.639 42.672 0
      vertex 30.639 42.672 1.6
    endloop
  endfacet
  facet normal -1 -0 0
    outer loop
      vertex 30.639 44.422 5.13
      vertex 30.639 43.022 1.6
      vertex 30.639 43.022 5.13
    endloop
  endfacet
  facet normal -0 0 1
    outer loop
      vertex 30.639 44.422 5.13
      vertex 34.639 43.022 5.13
      vertex 34.639 44.422 5.13
    endloop
  endfacet
  facet normal 0 0 1
    outer loop
      vertex 34.639 43.022 5.13
      vertex 30.639 44.422 5.13
      vertex 30.639 43.022 5.13
    endloop
  endfacet
  facet normal 0 -1 0
    outer loop
      vertex 30.639 43.022 1.6
      vertex 34.639 43.022 5.13
      vertex 30.639 43.022 5.13
    endloop
  endfacet
  facet normal 0 -1 -0
    outer loop
      vertex 34.639 43.022 5.13
      vertex 30.639 43.022 1.6
      vertex 34.639 43.022 1.6
    endloop
  endfacet
  facet normal 0 -1 0
    outer loop
      vertex 30.639 -1.75 0
      vertex 34.639 -1.75 5.13
      vertex 30.639 -1.75 5.13
    endloop
  endfacet
  facet normal 0 -1 -0
    outer loop
      vertex 34.639 -1.75 5.13
      vertex 30.639 -1.75 0
      vertex 34.639 -1.75 0
    endloop
  endfacet
  facet normal 1 0 0
    outer loop
      vertex 34.639 -0.349999 5.13
      vertex 34.639 -1.75 5.13
      vertex 34.639 -0.349999 1.6
    endloop
  endfacet
  facet normal 1 -0 0
    outer loop
      vertex 34.639 -0.349999 1.6
      vertex 34.639 2.92969e-06 0
      vertex 34.639 2.92969e-06 1.6
    endloop
  endfacet
  facet normal 1 0 0
    outer loop
      vertex 34.639 -1.75 0
      vertex 34.639 -0.349999 1.6
      vertex 34.639 -1.75 5.13
    endloop
  endfacet
  facet normal 1 0 0
    outer loop
      vertex 34.639 -0.349999 1.6
      vertex 34.639 -1.75 0
      vertex 34.639 2.92969e-06 0
    endloop
  endfacet
  facet normal -1 0 0
    outer loop
      vertex 30.639 2.92969e-06 0
      vertex 30.639 -0.349999 1.6
      vertex 30.639 2.92969e-06 1.6
    endloop
  endfacet
  facet normal -1 0 0
    outer loop
      vertex 30.639 -1.75 0
      vertex 30.639 -0.349999 1.6
      vertex 30.639 2.92969e-06 0
    endloop
  endfacet
  facet normal -1 0 0
    outer loop
      vertex 30.639 -1.75 5.13
      vertex 30.639 -0.349999 1.6
      vertex 30.639 -1.75 0
    endloop
  endfacet
  facet normal -1 0 0
    outer loop
      vertex 30.639 -0.349999 1.6
      vertex 30.639 -1.75 5.13
      vertex 30.639 -0.349999 5.13
    endloop
  endfacet
  facet normal -0 0 1
    outer loop
      vertex 30.639 -0.349999 5.13
      vertex 34.639 -1.75 5.13
      vertex 34.639 -0.349999 5.13
    endloop
  endfacet
  facet normal 0 0 1
    outer loop
      vertex 34.639 -1.75 5.13
      vertex 30.639 -0.349999 5.13
      vertex 30.639 -1.75 5.13
    endloop
  endfacet
  facet normal 0 1 -0
    outer loop
      vertex 34.639 -0.349999 1.6
      vertex 30.639 -0.349999 5.13
      vertex 34.639 -0.349999 5.13
    endloop
  endfacet
  facet normal 0 1 0
    outer loop
      vertex 30.639 -0.349999 5.13
      vertex 34.639 -0.349999 1.6
      vertex 30.639 -0.349999 1.6
    endloop
  endfacet
  facet normal 0 -1 0
    outer loop
      vertex 0 2.92969e-06 0
      vertex 30.639 2.92969e-06 1.6
      vertex 0 2.92969e-06 1.6
    endloop
  endfacet
  facet normal 0 -1 -0
    outer loop
      vertex 30.639 2.92969e-06 1.6
      vertex 0 2.92969e-06 0
      vertex 30.639 2.92969e-06 0
    endloop
  endfacet
  facet normal 0 -1 0
    outer loop
      vertex 34.639 2.92969e-06 0
      vertex 47.371 2.92969e-06 1.6
      vertex 34.639 2.92969e-06 1.6
    endloop
  endfacet
  facet normal 0 -1 -0
    outer loop
      vertex 47.371 2.92969e-06 1.6
      vertex 34.639 2.92969e-06 0
      vertex 47.371 2.92969e-06 0
    endloop
  endfacet
  facet normal -1 0 0
    outer loop
      vertex 0 2.92969e-06 0
      vertex 0 10.541 1.6
      vertex 0 10.541 0
    endloop
  endfacet
  facet normal -1 -0 0
    outer loop
      vertex 0 10.541 1.6
      vertex 0 2.92969e-06 0
      vertex 0 2.92969e-06 1.6
    endloop
  endfacet
  facet normal 0 1 -0
    outer loop
      vertex 17.907 10.541 0
      vertex 0 10.541 1.6
      vertex 17.907 10.541 1.6
    endloop
  endfacet
  facet normal 0 1 0
    outer loop
      vertex 0 10.541 1.6
      vertex 17.907 10.541 0
      vertex 0 10.541 0
    endloop
  endfacet
  facet normal -1 0 0
    outer loop
      vertex 17.907 10.541 0
      vertex 17.907 17.672 1.6
      vertex 17.907 17.672 0
    endloop
  endfacet
  facet normal -1 -0 0
    outer loop
      vertex 17.907 17.672 1.6
      vertex 17.907 10.541 0
      vertex 17.907 10.541 1.6
    endloop
  endfacet
  facet normal -1 0 0
    outer loop
      vertex 17.907 39.672 0
      vertex 17.907 42.672 1.6
      vertex 17.907 42.672 0
    endloop
  endfacet
  facet normal -1 -0 0
    outer loop
      vertex 17.907 42.672 1.6
      vertex 17.907 39.672 0
      vertex 17.907 39.672 1.6
    endloop
  endfacet
  facet normal -1 0 0
    outer loop
      vertex 17.907 21.672 0
      vertex 17.907 35.672 1.6
      vertex 17.907 35.672 0
    endloop
  endfacet
  facet normal -1 -0 0
    outer loop
      vertex 17.907 35.672 1.6
      vertex 17.907 21.672 0
      vertex 17.907 21.672 1.6
    endloop
  endfacet
  facet normal 0 1 -0
    outer loop
      vertex 30.639 42.672 0
      vertex 17.907 42.672 1.6
      vertex 30.639 42.672 1.6
    endloop
  endfacet
  facet normal 0 1 0
    outer loop
      vertex 17.907 42.672 1.6
      vertex 30.639 42.672 0
      vertex 17.907 42.672 0
    endloop
  endfacet
  facet normal 0 1 -0
    outer loop
      vertex 47.371 42.672 0
      vertex 34.639 42.672 1.6
      vertex 47.371 42.672 1.6
    endloop
  endfacet
  facet normal 0 1 0
    outer loop
      vertex 34.639 42.672 1.6
      vertex 47.371 42.672 0
      vertex 34.639 42.672 0
    endloop
  endfacet
  facet normal 1 -0 0
    outer loop
      vertex 47.371 39.672 1.6
      vertex 47.371 42.672 0
      vertex 47.371 42.672 1.6
    endloop
  endfacet
  facet normal 1 0 0
    outer loop
      vertex 47.371 42.672 0
      vertex 47.371 39.672 1.6
      vertex 47.371 39.672 0
    endloop
  endfacet
  facet normal 1 -0 0
    outer loop
      vertex 47.371 2.92969e-06 1.6
      vertex 47.371 17.672 0
      vertex 47.371 17.672 1.6
    endloop
  endfacet
  facet normal 1 0 0
    outer loop
      vertex 47.371 17.672 0
      vertex 47.371 2.92969e-06 1.6
      vertex 47.371 2.92969e-06 0
    endloop
  endfacet
  facet normal 1 -0 0
    outer loop
      vertex 47.371 21.672 1.6
      vertex 47.371 35.672 0
      vertex 47.371 35.672 1.6
    endloop
  endfacet
  facet normal 1 0 0
    outer loop
      vertex 47.371 35.672 0
      vertex 47.371 21.672 1.6
      vertex 47.371 21.672 0
    endloop
  endfacet
endsolid OpenSCAD_Model
